# xmcd
#
# Track frame offsets: 
#        182
#        19347
#        50047
#        67737
#        96410
#        128677
#        153485
#        174842
#        195645
#        217137
#        242637
#        274292
#        309792
#
# Disc length: 4525 seconds
#
# Revision: 1
# Processed by: cddbd v1.5.2PL0 Copyright (c) Steve Scherf et al.
# Submitted via: ExactAudioCopy v0.99pb5
#
DISCID=b411ab0d
DTITLE=Tarika Blue - Tarika Blue
DYEAR=1977
DGENRE=Jazz
TTITLE0=Dreamflower
TTITLE1=Truth Is The Key
TTITLE2=Love It
TTITLE3=Things Spring
TTITLE4=You'll Be With Me
TTITLE5=My Love Is So Free
TTITLE6=Charlie
TTITLE7=Jimi
TTITLE8=Blue Neptune
TTITLE9=Sunshower
TTITLE10=Revelation
TTITLE11=Downtown Sound
TTITLE12=Sun Thru Winter
EXTD=YEAR: 1977
EXTT0=
EXTT1=
EXTT2=
EXTT3=
EXTT4=
EXTT5=
EXTT6=
EXTT7=
EXTT8=
EXTT9=
EXTT10=
EXTT11=
EXTT12=
PLAYORDER=
